<svg id="svg" xmlns="http://www.w3.org/2000/svg" viewBox="57.650001525878906 106.09487915039062 685.965087890625 222.75509643554688" height="222.75509643554688"><rect x="702.01" y="155.55" fill="rgba(240, 240,240, 0.4)" stroke="#BBB" stroke-width="1"></rect><circle cx="678.48" cy="171.23" fill="#00ffcc" stroke="#dedede" stroke-width="2" r="55.1351294548222" d="M 623.3448705451779 171.23 a 55.1351294548222 55.1351294548222 0 1 0 110.2702589096444 0a 55.1351294548222 55.1351294548222 0 1 0 -110.2702589096444 0 Z"></circle><line x1="271.61" y1="262.39" x2="621.57" y2="184.25" fill="none" stroke="#dedede" stroke-width="2" d="M 271.61 262.39 L 621.57 184.25"></line><rect x="67.65" y="202.88" fill="#00ffcc" stroke="#dedede" stroke-width="2" width="198.01" height="115.97000000000003" rx="10" ry="10" d="M 67.65 212.88 a 10 10 0 0 1 10 -10 h 178.01 a 10 10 0 0 1 10 10 v 95.97000000000003 a 10 10 0 0 1 -10 10 h -178.01 a 10 10 0 0 1 -10 -10 Z"></rect></svg>